<svg width="1400" height="900" viewBox="0 0 1400 900" fill="none" xmlns="http://www.w3.org/2000/svg">
  <rect width="1400" height="900" rx="36" fill="#0B0F15"/>
  <rect x="112" y="90" width="360" height="720" rx="42" fill="#121A25" stroke="rgba(255,255,255,0.1)"/>
  <rect x="498" y="90" width="790" height="720" rx="30" fill="#101722" stroke="rgba(255,255,255,0.08)"/>
  <rect x="140" y="124" width="304" height="662" rx="32" fill="#0F151F"/>
  <circle cx="292" cy="220" r="66" fill="#7DD3FC" fill-opacity="0.18"/>
  <rect x="196" y="316" width="192" height="18" rx="9" fill="#F5F7FA" fill-opacity="0.9"/>
  <rect x="170" y="360" width="244" height="54" rx="27" fill="#17212E"/>
  <rect x="170" y="438" width="244" height="54" rx="27" fill="#17212E"/>
  <rect x="170" y="516" width="244" height="54" rx="27" fill="#17212E"/>
  <rect x="170" y="594" width="244" height="54" rx="27" fill="#7DD3FC" fill-opacity="0.18"/>
  <rect x="534" y="126" width="718" height="176" rx="26" fill="#121B27"/>
  <rect x="534" y="332" width="718" height="208" rx="26" fill="#121B27"/>
  <rect x="534" y="570" width="718" height="190" rx="26" fill="#121B27"/>
  <rect x="570" y="610" width="646" height="1" fill="rgba(255,255,255,0.08)"/>
  <rect x="570" y="640" width="646" height="44" rx="16" fill="#17212E"/>
  <rect x="570" y="698" width="646" height="44" rx="16" fill="#17212E"/>
  <text x="534" y="794" fill="#7DD3FC" font-size="24" font-family="Arial, sans-serif" letter-spacing="2.6">PROFILE / HISTORY / SUPPORT</text>
</svg>
