<svg width="1400" height="900" viewBox="0 0 1400 900" fill="none" xmlns="http://www.w3.org/2000/svg">
  <rect width="1400" height="900" rx="36" fill="#0B0F15"/>
  <rect x="90" y="90" width="1220" height="720" rx="30" fill="#101722" stroke="rgba(255,255,255,0.08)"/>
  <rect x="128" y="128" width="280" height="644" rx="40" fill="#121A25" stroke="rgba(255,255,255,0.1)"/>
  <rect x="440" y="128" width="280" height="644" rx="40" fill="#121A25" stroke="rgba(255,255,255,0.1)"/>
  <rect x="752" y="128" width="520" height="644" rx="28" fill="#121A24"/>
  <rect x="154" y="162" width="228" height="576" rx="30" fill="#0F151F"/>
  <rect x="466" y="162" width="228" height="576" rx="30" fill="#0F151F"/>
  <rect x="182" y="202" width="126" height="18" rx="9" fill="#7DD3FC" fill-opacity="0.82"/>
  <rect x="182" y="244" width="172" height="52" rx="26" fill="#17212E"/>
  <rect x="182" y="322" width="172" height="78" rx="24" fill="#17212E"/>
  <rect x="182" y="424" width="172" height="54" rx="27" fill="#7DD3FC" fill-opacity="0.18"/>
  <rect x="494" y="202" width="126" height="18" rx="9" fill="#F5F7FA" fill-opacity="0.9"/>
  <rect x="494" y="244" width="172" height="54" rx="27" fill="#17212E"/>
  <rect x="494" y="322" width="172" height="54" rx="27" fill="#17212E"/>
  <rect x="494" y="400" width="172" height="54" rx="27" fill="#17212E"/>
  <rect x="494" y="478" width="172" height="54" rx="27" fill="#7DD3FC" fill-opacity="0.18"/>
  <rect x="788" y="162" width="448" height="72" rx="22" fill="#17212E"/>
  <rect x="788" y="266" width="448" height="150" rx="24" fill="#131C28"/>
  <rect x="788" y="448" width="448" height="150" rx="24" fill="#131C28"/>
  <rect x="788" y="630" width="448" height="74" rx="26" fill="#7DD3FC" fill-opacity="0.2" stroke="#7DD3FC" stroke-opacity="0.42"/>
  <text x="788" y="748" fill="#7DD3FC" font-size="24" font-family="Arial, sans-serif" letter-spacing="2.6">BOOKING FLOW</text>
</svg>
