<svg width="1400" height="900" viewBox="0 0 1400 900" fill="none" xmlns="http://www.w3.org/2000/svg">
  <rect width="1400" height="900" rx="36" fill="#0B0F15"/>
  <rect x="44" y="44" width="1312" height="812" rx="28" fill="#101621" stroke="rgba(255,255,255,0.08)"/>
  <rect x="82" y="82" width="1236" height="66" rx="18" fill="#121A24"/>
  <rect x="108" y="105" width="164" height="20" rx="10" fill="#F5F7FA" fill-opacity="0.92"/>
  <rect x="82" y="182" width="280" height="634" rx="24" fill="#121B27"/>
  <rect x="112" y="218" width="124" height="16" rx="8" fill="#7DD3FC" fill-opacity="0.8"/>
  <rect x="112" y="266" width="214" height="42" rx="18" fill="#0D131B"/>
  <rect x="112" y="328" width="214" height="42" rx="18" fill="#0D131B"/>
  <rect x="112" y="390" width="214" height="42" rx="18" fill="#0D131B"/>
  <rect x="394" y="182" width="924" height="634" rx="24" fill="#111925"/>
  <rect x="430" y="218" width="266" height="18" rx="9" fill="#F5F7FA" fill-opacity="0.9"/>
  <rect x="1114" y="208" width="168" height="36" rx="18" fill="#7DD3FC" fill-opacity="0.16" stroke="#7DD3FC" stroke-opacity="0.4"/>
  <rect x="430" y="274" width="852" height="1" fill="rgba(255,255,255,0.08)"/>
  <g fill="#15202C">
    <rect x="430" y="304" width="258" height="210" rx="24"/>
    <rect x="712" y="304" width="258" height="210" rx="24"/>
    <rect x="994" y="304" width="258" height="210" rx="24"/>
    <rect x="430" y="540" width="258" height="210" rx="24"/>
    <rect x="712" y="540" width="258" height="210" rx="24"/>
    <rect x="994" y="540" width="258" height="210" rx="24"/>
  </g>
  <g fill="#7DD3FC" fill-opacity="0.16">
    <rect x="458" y="330" width="202" height="104" rx="18"/>
    <rect x="1022" y="566" width="202" height="104" rx="18"/>
  </g>
  <text x="430" y="790" fill="#7DD3FC" font-size="24" font-family="Arial, sans-serif" letter-spacing="2.6">STOREFRONT / PRODUCT GRID</text>
</svg>
