<svg width="1400" height="900" viewBox="0 0 1400 900" fill="none" xmlns="http://www.w3.org/2000/svg">
  <rect width="1400" height="900" rx="36" fill="#0B0F15"/>
  <rect x="44" y="44" width="1312" height="812" rx="28" fill="#101621" stroke="rgba(255,255,255,0.08)"/>
  <rect x="82" y="82" width="1236" height="66" rx="18" fill="#121A24"/>
  <rect x="108" y="105" width="208" height="20" rx="10" fill="#F5F7FA" fill-opacity="0.9"/>
  <rect x="82" y="184" width="760" height="632" rx="24" fill="#111925"/>
  <rect x="112" y="220" width="248" height="18" rx="9" fill="#7DD3FC" fill-opacity="0.85"/>
  <g fill="#16202C">
    <rect x="112" y="270" width="700" height="84" rx="20"/>
    <rect x="112" y="378" width="700" height="84" rx="20"/>
    <rect x="112" y="486" width="700" height="84" rx="20"/>
  </g>
  <rect x="874" y="184" width="444" height="632" rx="24" fill="#121B27"/>
  <rect x="906" y="220" width="188" height="18" rx="9" fill="#F5F7FA" fill-opacity="0.9"/>
  <rect x="906" y="274" width="380" height="184" rx="22" fill="#17212E"/>
  <rect x="906" y="486" width="380" height="116" rx="22" fill="#7DD3FC" fill-opacity="0.16"/>
  <rect x="906" y="632" width="380" height="52" rx="26" fill="#7DD3FC" fill-opacity="0.22" stroke="#7DD3FC" stroke-opacity="0.42"/>
  <text x="112" y="788" fill="#7DD3FC" font-size="24" font-family="Arial, sans-serif" letter-spacing="2.6">CHECKOUT / ORDER / ACCOUNT FLOW</text>
</svg>
