<svg width="1400" height="900" viewBox="0 0 1400 900" fill="none" xmlns="http://www.w3.org/2000/svg">
  <rect width="1400" height="900" rx="36" fill="#0B0F15"/>
  <rect x="44" y="44" width="1312" height="812" rx="28" fill="#101621" stroke="rgba(255,255,255,0.08)"/>
  <rect x="82" y="82" width="242" height="734" rx="24" fill="#121A25"/>
  <rect x="112" y="118" width="98" height="18" rx="9" fill="#7DD3FC" fill-opacity="0.8"/>
  <g fill="#0E141D">
    <rect x="112" y="174" width="182" height="42" rx="18"/>
    <rect x="112" y="232" width="182" height="42" rx="18"/>
    <rect x="112" y="290" width="182" height="42" rx="18"/>
    <rect x="112" y="348" width="182" height="42" rx="18"/>
    <rect x="112" y="406" width="182" height="42" rx="18"/>
  </g>
  <rect x="358" y="82" width="960" height="734" rx="24" fill="#111925"/>
  <rect x="394" y="118" width="312" height="24" rx="12" fill="#F5F7FA" fill-opacity="0.92"/>
  <rect x="1148" y="112" width="134" height="36" rx="18" fill="#7DD3FC" fill-opacity="0.18"/>
  <rect x="394" y="182" width="424" height="176" rx="24" fill="#17212E"/>
  <rect x="842" y="182" width="440" height="176" rx="24" fill="#17212E"/>
  <rect x="394" y="390" width="888" height="390" rx="24" fill="#0E1621"/>
  <rect x="430" y="430" width="816" height="1" fill="rgba(255,255,255,0.08)"/>
  <g fill="#161F2B">
    <rect x="430" y="456" width="816" height="52" rx="16"/>
    <rect x="430" y="524" width="816" height="52" rx="16"/>
    <rect x="430" y="592" width="816" height="52" rx="16"/>
    <rect x="430" y="660" width="816" height="52" rx="16"/>
  </g>
  <rect x="430" y="456" width="176" height="52" rx="16" fill="#7DD3FC" fill-opacity="0.14"/>
  <text x="394" y="836" fill="#7DD3FC" font-size="24" font-family="Arial, sans-serif" letter-spacing="2.6">ADMIN DASHBOARD / TABLE VIEW</text>
</svg>
